<svg id="Layer_1" data-name="Layer 1" xmlns="http://www.w3.org/2000/svg" viewBox="0 0 790.08 161.36"><defs><style>.cls-1,.cls-2,.cls-3,.cls-4,.cls-5{fill:none;}.cls-1,.cls-2,.cls-3,.cls-4,.cls-5,.cls-7,.cls-8{stroke:#326273;stroke-miterlimit:10;}.cls-1{stroke-width:5px;}.cls-2{stroke-width:3.5px;}.cls-3{stroke-width:10px;}.cls-5{stroke-width:2px;}.cls-6,.cls-8,.cls-9{fill:#326273;}.cls-7{fill:#fff;}.cls-8{stroke-width:1.7px;}.cls-9{opacity:0.9;font-size:100px;font-family:HoeflerText-Regular, Hoefler Text;}.cls-10{letter-spacing:-0.04em;}.cls-11{letter-spacing:-0.04em;}</style></defs><circle class="cls-1" cx="75.53" cy="75.53" r="73.03"/><circle class="cls-2" cx="75.18" cy="75.18" r="57.51"/><line class="cls-3" x1="39.22" y1="108.4" x2="62.61" y2="54.49"/><line class="cls-3" x1="110.43" y1="108.4" x2="87.04" y2="54.49"/><line class="cls-1" x1="74.83" y1="58.69" x2="39.22" y2="46.42"/><line class="cls-1" x1="74.83" y1="58.69" x2="114.44" y2="44.11"/><line class="cls-4" x1="75.18" y1="58.6" x2="75.18" y2="67.06"/><path class="cls-5" d="M134.47,114.63l35.61-20.51A92.16,92.16,0,0,0,160,98.86c-4.15,2.28-8.34,5-8.71,4.51-.19-.26.88-1.25.72-1.42-.39-.45-7.81,5.17-7.71,5.32s4.71-2.65,4.34-3.59-4.49,0-4.5-.13a18.75,18.75,0,0,0,2.47-.6c1.47-.52,2.24-1.18,2.31-1.09s-1.93,1.85-4.32,3.74A44.76,44.76,0,0,1,140,109c-.07-.08,4.28-3.07,3.85-3.91-.33-.65-3.35.19-3.35.18a1.07,1.07,0,0,1,.57,0,1.14,1.14,0,0,1,.52.24c.53.59-3.53,4.63-2.92,3.09.86-2.17.58-2.23.63-2.33.76-1.43,4.91-1.66,5.29-.66.63,1.67-9,6.88-9.4,6.35-.13-.17.82-.75,1.29-2.27a5.32,5.32,0,0,0,.22-2.83,19.24,19.24,0,0,0-.45,2.16c-.39,1.85-1.29,1.17-1.43.41-.22-1.14.1-1.58-.2-1.87-.58-.57-2.87.09-3.18,1.4-.18.79.41,1.53.88,2.12.79,1,2,1.67,2.1,1.51s-1-1.88-2.69-3-3.59-1.6-3.83-1.2.87,1.34,1.65,1.89,2.07,1.19,2.34.88-.57-1.57-1.39-2.38a9.09,9.09,0,0,0-2.25-1.59,17,17,0,0,0,2.31,1.08,5.87,5.87,0,0,0,2.5.51c.05-.13-.82-.56-1.5-.81-.5-.18-1.59-.52-1.67-.33s1.12,1,2.55,1.89a29.33,29.33,0,0,0,2.75,1.61,17.93,17.93,0,0,0-3.42-2.25,16.24,16.24,0,0,0-3.78-1.59,6.25,6.25,0,0,0,1.35.77" transform="translate(-59.65 -47.69)"/><path class="cls-5" d="M98.87,94.12l9.67,5.57.59.34,25.34,14.6" transform="translate(-59.65 -47.69)"/><path class="cls-6" d="M139,105.09a12.28,12.28,0,0,0-4.93,1.56,1.5,1.5,0,1,0,1.51,2.59,10.13,10.13,0,0,1,1.19-.59l-.36.15a10.79,10.79,0,0,1,2.63-.72l-.4,0,.36,0a1.61,1.61,0,0,0,1.06-.44,1.52,1.52,0,0,0,.44-1.06,1.5,1.5,0,0,0-1.5-1.5Z" transform="translate(-59.65 -47.69)"/><path class="cls-6" d="M131.38,108.23c-2.76-.39-5.18-2-7.62-3.22-1.68-.87-3.37-1.72-5-2.69a134.4,134.4,0,0,0-12.62-6.52L105,98.54a187.09,187.09,0,0,1,23.92,10.85,1.5,1.5,0,0,0,1.51-2.59l-6.11-4.45-1.51,2.59a69.86,69.86,0,0,0,11.06,4.5c1.85.58,2.64-2.32.8-2.89a66.37,66.37,0,0,1-10.35-4.2,1.5,1.5,0,0,0-1.51,2.59l6.11,4.45,1.51-2.59a189.94,189.94,0,0,0-24.63-11.15c-1.58-.58-2.7,2-1.16,2.74A134.26,134.26,0,0,1,117.45,105c1.68,1,3.44,1.86,5.18,2.76,2.53,1.31,5.08,2.91,8,3.33a1.55,1.55,0,0,0,1.84-1,1.52,1.52,0,0,0-1.05-1.85Z" transform="translate(-59.65 -47.69)"/><path class="cls-6" d="M134.67,106.94h0l.4,0H135l.4.06,0,0,.36.15q.59.74.42.39l.15.35v0l.05.4a.17.17,0,0,1,0-.1l-.06.4a.29.29,0,0,1,0-.1l-.15.35a.81.81,0,0,1-.26.29c-.12.09-.14.1,0,0l-.36.15a1.31,1.31,0,0,1,.27-.06l-.4,0c.67-.07,1.34-.12,2-.17a8.39,8.39,0,0,1,1.87-.1l-.4-.06a1.58,1.58,0,0,1,.37.11l-.36-.16.14.08c-.22-.18-.27-.22-.17-.12-.3-.32-.14-.2-.07,0l-.15-.36a1,1,0,0,1,0,.18l-.05-.4a1,1,0,0,1,0,.17l.05-.4a1,1,0,0,1,0,.17l.15-.36q-.06.13.06-.06a.83.83,0,0,1,.3-.26,1.63,1.63,0,0,0-.68.89,1.52,1.52,0,0,0,.15,1.16,1.5,1.5,0,0,0,.89.69,1.47,1.47,0,0,0,1.16-.15,2.26,2.26,0,0,0,.79-.94,1.89,1.89,0,0,0,.16-.91,2.39,2.39,0,0,0-1-1.82,4.4,4.4,0,0,0-2.93-.34l-1.43.13a6.85,6.85,0,0,0-1.5.19,1.86,1.86,0,0,0-.83,3.09,1.82,1.82,0,0,0,.75.43,1.91,1.91,0,0,0,.89,0,1.5,1.5,0,0,0,.89-.69,1.57,1.57,0,0,0,.16-1.16,1.54,1.54,0,0,0-.69-.89,1.73,1.73,0,0,0-1.16-.15Z" transform="translate(-59.65 -47.69)"/><path class="cls-6" d="M137.6,109.82a1.5,1.5,0,0,0,0-3,1.5,1.5,0,0,0,0,3Z" transform="translate(-59.65 -47.69)"/><path class="cls-7" d="M152,102c-10.45,4.39-14.68,6.84-14.38,7.86.18.58,1.8.65,1.78,1-.05.53-4,1-4.21.35-.33-.9,5.75-4,13.44-7.47" transform="translate(-59.65 -47.69)"/><path class="cls-6" d="M136.4,112.54a86.08,86.08,0,0,1,21.77-11.63c1.8-.65,1.05-3.52-.8-2.9a48.86,48.86,0,0,0-11,5.34,1.51,1.51,0,0,0,.76,2.79,8.76,8.76,0,0,0,5-1.57c1.29-.9.55-3.4-1.15-2.74a52.79,52.79,0,0,0-10.72,5.59,1.5,1.5,0,0,0,1.51,2.59,15.23,15.23,0,0,0,6.06-5.39,1.51,1.51,0,0,0-1.69-2.2,25.57,25.57,0,0,0-8.68,4.18,1.52,1.52,0,0,0,.76,2.8,42.74,42.74,0,0,0,6.5,0c1.53-.14,3-2.06,1.43-3.27a1.6,1.6,0,0,0-1.81-.24c-2.24,1.07-4.46,2.15-6.7,3.19-1.92.89-4,1.73-6.1,1l-.8,2.89a8.35,8.35,0,0,1,1.9,1,3.84,3.84,0,0,0,2.33.39,6.5,6.5,0,0,0,3.85-2.69,1.55,1.55,0,0,0,0-2.12,7.67,7.67,0,0,0-5.45-2.41l.4,3a77.74,77.74,0,0,0,13.65-3.76l-1.46-2.51-1.28,1.38a1.5,1.5,0,0,0,1.81,2.35,57.86,57.86,0,0,0,9.3-5.17c1.58-1.08.08-3.68-1.52-2.59a58.19,58.19,0,0,1-9.29,5.17l1.82,2.36,1.28-1.38c.95-1,0-3.06-1.46-2.5a78.62,78.62,0,0,1-13.65,3.76c-1.71.3-1.23,2.9.4,2.94a4.63,4.63,0,0,1,3.33,1.53v-2.12c-.52.64-1.45,2-2.43,1.86a3.34,3.34,0,0,1-1.14-.65,5.15,5.15,0,0,0-1.59-.66,1.5,1.5,0,0,0-.8,2.89c2.43.88,4.93.23,7.23-.74,2.67-1.14,5.26-2.47,7.88-3.72l-1.82-.23-.19-.32.15-1.16c.73-.32.75-.43.07-.33l-1,0h-1.46c-1.14,0-2.28-.05-3.41-.11l.76,2.79a23.41,23.41,0,0,1,8-3.88l-1.7-2.2a12.44,12.44,0,0,1-5,4.31l1.51,2.59a49.83,49.83,0,0,1,10-5.29L150.57,102a5.93,5.93,0,0,1-3.44,1.16l.76,2.8a45.17,45.17,0,0,1,10.28-5l-.8-2.9A88.78,88.78,0,0,0,134.88,110c-1.54,1.14,0,3.74,1.52,2.59Z" transform="translate(-59.65 -47.69)"/><path class="cls-6" d="M129.72,109.41l-.16-.16a1.14,1.14,0,0,0-.48-.31,1.08,1.08,0,0,0-.58-.13,1.06,1.06,0,0,0-.58.13,1,1,0,0,0-.48.31l-.24.3a1.54,1.54,0,0,0-.2.76l0,.4a1.49,1.49,0,0,0,.39.66l.16.16a1.14,1.14,0,0,0,.48.31,1.08,1.08,0,0,0,.58.13,1.06,1.06,0,0,0,.58-.13,1,1,0,0,0,.48-.31l.24-.3a1.57,1.57,0,0,0,.2-.76l0-.4a1.49,1.49,0,0,0-.39-.66Z" transform="translate(-59.65 -47.69)"/><path class="cls-6" d="M133.69,113.44v1.28a.78.78,0,0,0,.55.73.9.9,0,0,0,.4,0,.72.72,0,0,0,.45-.35,7.82,7.82,0,0,0,.58-1.95.83.83,0,0,0-.08-.58.72.72,0,0,0-.44-.34.73.73,0,0,0-.58.07.75.75,0,0,0-.35.45,7,7,0,0,1-.49,1.74l.08-.18v0l1.39.38v-1.28a.77.77,0,0,0-.22-.53.79.79,0,0,0-.53-.22.76.76,0,0,0-.75.75Z" transform="translate(-59.65 -47.69)"/><path class="cls-6" d="M134.28,115a.75.75,0,0,0,0-1.5.75.75,0,0,0,0,1.5Z" transform="translate(-59.65 -47.69)"/><path class="cls-6" d="M134.45,115.55a.75.75,0,0,0,0-1.5.75.75,0,0,0,0,1.5Z" transform="translate(-59.65 -47.69)"/><path class="cls-6" d="M134.45,115.55a.75.75,0,0,0,0-1.5.75.75,0,0,0,0,1.5Z" transform="translate(-59.65 -47.69)"/><path class="cls-6" d="M134.47,115.55a.75.75,0,0,0,0-1.5.75.75,0,0,0,0,1.5Z" transform="translate(-59.65 -47.69)"/><path class="cls-6" d="M134.5,115.55a.75.75,0,0,0,0-1.5.75.75,0,0,0,0,1.5Z" transform="translate(-59.65 -47.69)"/><line class="cls-4" x1="74.83" y1="66.94" x2="39.22" y2="46.42"/><line class="cls-1" x1="74.83" y1="66.94" x2="35.21" y2="44.11"/><line class="cls-1" x1="74.83" y1="66.94" x2="114.44" y2="44.11"/><path class="cls-6" d="M132.62,114.76v.18l1.5-1.5h0l.4,0h0l.36.15-.08,0-.08-.06,0,0-.22-.1a1.13,1.13,0,0,0-.61-.13,1.18,1.18,0,0,0-.42,0,1.92,1.92,0,0,0-.39.17h0l-.31.24h0a2,2,0,0,0-.13.17,1.64,1.64,0,0,0-.13.16,1.68,1.68,0,0,0-.16.39v0a2.9,2.9,0,0,0-.06.41v0a2.65,2.65,0,0,0,.07.48,1,1,0,0,0,.27.51,1.06,1.06,0,0,0,.42.39,1.12,1.12,0,0,0,.56.18,1.19,1.19,0,0,0,.59,0l.36-.15a1.4,1.4,0,0,0,.54-.54l.15-.36a1.55,1.55,0,0,0,0-.8s0,0,0-.06l.05.4v-.07l-.05.39a.08.08,0,0,1,0,0l-.15.36s0,0,0,0l-.23.31,0,0-.3.24,0,0-.35.15h0l-.4.06h0l-.4-.06h0l-.36-.15.06,0,.07,0,.07,0a1.5,1.5,0,0,0,.82.23,1.17,1.17,0,0,0,.58-.13,1.14,1.14,0,0,0,.48-.31l.23-.3a1.48,1.48,0,0,0,.21-.76v-.18a1.15,1.15,0,0,0-.13-.58,1,1,0,0,0-.31-.48,1.14,1.14,0,0,0-.48-.31,1.06,1.06,0,0,0-.58-.13l-.4,0a1.49,1.49,0,0,0-.66.39l-.24.3a1.54,1.54,0,0,0-.2.76Z" transform="translate(-59.65 -47.69)"/><path class="cls-6" d="M135.39,115.57l-.11,0h-.12a.3.3,0,0,0-.12,0l-.1,0a.73.73,0,0,0-.09.08.31.31,0,0,0-.07.09l0,0a.33.33,0,0,0,0,.14.26.26,0,0,0,0,.15.31.31,0,0,0,.06.13.24.24,0,0,0,.11.09l.09,0a.34.34,0,0,0,.2,0l.09,0a.33.33,0,0,0,.13-.13l0,0-.06.07h0l-.08,0h0l-.09,0h-.15l-.09,0h0a.24.24,0,0,0,.14.05.26.26,0,0,0,.15,0,.32.32,0,0,0,.22-.17l0-.09a.34.34,0,0,0,0-.2l0-.09a.4.4,0,0,0-.13-.13Z" transform="translate(-59.65 -47.69)"/><polygon class="cls-4" points="75.59 67.85 74.81 68.28 74.04 67.82 74.06 66.92 74.85 66.49 75.61 66.96 75.59 67.85"/><polygon class="cls-8" points="76.23 67.46 74.83 68.28 73.42 67.47 73.42 65.85 74.82 65.03 76.23 65.84 76.23 67.46"/><line class="cls-1" x1="74.83" y1="58.69" x2="35.21" y2="44.11"/><text class="cls-9" transform="translate(195.58 111.06)"><tspan class="cls-10">T</tspan><tspan x="67" y="0">ianyou </tspan><tspan class="cls-11" x="371.1" y="0">M</tspan><tspan x="464.1" y="0">ou</tspan></text></svg>