<svg id="Layer_1" data-name="Layer 1" xmlns="http://www.w3.org/2000/svg" viewBox="0 0 841.11 212"><defs><style>.cls-1,.cls-2,.cls-3,.cls-4,.cls-5{fill:none;}.cls-1,.cls-2,.cls-3,.cls-4,.cls-5,.cls-7,.cls-8{stroke:#326273;stroke-miterlimit:10;}.cls-1{stroke-width:5px;}.cls-2{stroke-width:3.5px;}.cls-3{stroke-width:10px;}.cls-5{stroke-width:2px;}.cls-6,.cls-8,.cls-9{fill:#326273;}.cls-7{fill:#fff;}.cls-8{stroke-width:1.7px;}.cls-9{opacity:0.9;font-size:100px;font-family:HoeflerText-Regular, Hoefler Text;}.cls-10{letter-spacing:-0.04em;}.cls-11{letter-spacing:-0.04em;}</style></defs><circle class="cls-1" cx="106" cy="106" r="103.5"/><circle class="cls-2" cx="105.5" cy="105.5" r="81.5"/><line class="cls-3" x1="54.54" y1="152.59" x2="87.69" y2="76.17"/><line class="cls-3" x1="155.46" y1="152.59" x2="122.31" y2="76.17"/><line class="cls-1" x1="105" y1="82.14" x2="54.54" y2="64.75"/><line class="cls-1" x1="105" y1="82.14" x2="161.14" y2="61.48"/><line class="cls-4" x1="105.5" y1="82" x2="105.5" y2="94"/><path class="cls-5" d="M113.61,114.93l50.46-29.07a129.83,129.83,0,0,0-14.3,6.73C143.89,95.81,138,99.67,137.43,99c-.28-.38,1.24-1.77,1-2-.56-.64-11.08,7.33-10.93,7.54s6.68-3.76,6.16-5.09c-.46-1.17-6.37,0-6.39-.18a28.3,28.3,0,0,0,3.51-.85c2.08-.73,3.17-1.67,3.27-1.55s-2.74,2.63-6.12,5.31a62.38,62.38,0,0,1-6.51,4.81c-.09-.12,6.07-4.35,5.46-5.55-.47-.91-4.75.28-4.75.26a1.6,1.6,0,0,1,.81,0,1.54,1.54,0,0,1,.73.34c.75.83-5,6.56-4.13,4.38,1.22-3.07.82-3.16.9-3.3,1.07-2,7-2.35,7.49-.93.89,2.36-12.77,9.74-13.33,9-.17-.23,1.16-1.06,1.84-3.21a7.76,7.76,0,0,0,.31-4,25.2,25.2,0,0,0-.65,3c-.54,2.62-1.81,1.66-2,.58-.3-1.61.15-2.23-.28-2.64-.83-.81-4.07.12-4.51,2-.26,1.12.58,2.17,1.25,3,1.12,1.4,2.77,2.36,3,2.13s-1.45-2.65-3.82-4.22c-2.22-1.46-5.09-2.26-5.42-1.7s1.23,1.91,2.33,2.68,2.94,1.69,3.32,1.25-.81-2.22-2-3.38a13.27,13.27,0,0,0-3.19-2.25,25.44,25.44,0,0,0,3.28,1.53c1.63.58,3.46.94,3.54.72s-1.17-.79-2.13-1.14c-.71-.26-2.25-.74-2.37-.48s1.6,1.4,3.62,2.68a41.6,41.6,0,0,0,3.89,2.29,24.65,24.65,0,0,0-4.85-3.19,23.41,23.41,0,0,0-5.35-2.26s.33.28,1.91,1.09" transform="translate(-8.61 -21.11)"/><path class="cls-5" d="M63.15,85.86l13.71,7.9.83.48,35.92,20.69" transform="translate(-8.61 -21.11)"/><path class="cls-6" d="M120,102a16.79,16.79,0,0,0-6.68,2.13,1.51,1.51,0,0,0-.54,2,1.53,1.53,0,0,0,2,.54c.46-.26.92-.5,1.4-.72.09,0,.35-.21,0,0a3.2,3.2,0,0,1,.39-.16l.69-.24a14.16,14.16,0,0,1,1.42-.38l.72-.14c.1,0,.55-.14.11,0a2.09,2.09,0,0,1,.42,0,1.61,1.61,0,0,0,1.06-.44A1.5,1.5,0,0,0,120,102Z" transform="translate(-8.61 -21.11)"/><path class="cls-6" d="M109.07,106.47c-4-.55-7.56-2.87-11.1-4.71-2.33-1.2-4.68-2.38-6.94-3.73a187.82,187.82,0,0,0-17.89-9.24L72,91.53A262.43,262.43,0,0,1,106,107a1.5,1.5,0,0,0,1.52-2.59l-8.66-6.32-1.52,2.59A97.83,97.83,0,0,0,112.89,107c1.85.57,2.64-2.33.8-2.9a92.85,92.85,0,0,1-14.81-6,1.5,1.5,0,0,0-1.52,2.59L106,107l1.52-2.59A267.38,267.38,0,0,0,72.78,88.64c-1.58-.59-2.7,2-1.16,2.74a186.81,186.81,0,0,1,18.11,9.37c2.3,1.38,4.71,2.56,7.1,3.8,3.63,1.88,7.31,4.25,11.44,4.81a1.54,1.54,0,0,0,1.84-1,1.5,1.5,0,0,0-1-1.84Z" transform="translate(-8.61 -21.11)"/><path class="cls-6" d="M114.06,104.63l1.36.52.15.54a1,1,0,0,1-.38.77.34.34,0,0,1-.17.11c-.1,0-.12.05,0,0s.28,0,0,0h.14l.28,0,.56-.05,2.44-.21c.37,0,.74-.07,1.11-.09H120c.05,0,.2,0,.23,0-.2,0-.24,0-.13,0l.1,0c.09,0,.2.12.08,0s.2.16-.07,0c-.11-.09-.11-.09,0,0l-.12-.17a.44.44,0,0,0,.08.15s-.11-.32-.06-.11c0-.06,0-.35,0-.15,0-.25.06-.31,0-.2s0,.06,0-.06a1,1,0,0,1,.36-.41,1.63,1.63,0,0,0-.68.89,1.5,1.5,0,0,0,2.2,1.7,2.31,2.31,0,0,0,1-2.09,2.75,2.75,0,0,0-1.16-2c-1.13-.77-2.57-.5-3.85-.39l-2,.17a8.41,8.41,0,0,0-2,.26,2,2,0,0,0-1.47,2,1.92,1.92,0,0,0,.57,1.3,1.86,1.86,0,0,0,1.7.45,1.5,1.5,0,0,0,1.05-1.84,1.54,1.54,0,0,0-1.84-1.05Z" transform="translate(-8.61 -21.11)"/><path class="cls-6" d="M118,107.49a1.5,1.5,0,0,0,0-3,1.5,1.5,0,0,0,0,3Z" transform="translate(-8.61 -21.11)"/><path class="cls-7" d="M138.45,97c-14.82,6.22-20.81,9.7-20.38,11.15.25.82,2.55.91,2.52,1.4-.06.74-5.62,1.45-6,.49-.46-1.28,8.16-5.64,19.06-10.59" transform="translate(-8.61 -21.11)"/><path class="cls-6" d="M116,111.44a121.49,121.49,0,0,1,31-16.56c1.8-.64,1.05-3.52-.8-2.89a67.8,67.8,0,0,0-15.44,7.49,1.52,1.52,0,0,0,.76,2.8,11.73,11.73,0,0,0,6.7-2.14c1.27-.91.55-3.4-1.16-2.75a73.91,73.91,0,0,0-15,7.86,1.5,1.5,0,0,0,1.51,2.59,20.84,20.84,0,0,0,8.36-7.41,1.51,1.51,0,0,0-1.69-2.2,35.39,35.39,0,0,0-12.15,5.87,1.51,1.51,0,0,0,.76,2.79c1.66.1,3.32.16,5,.17a20.33,20.33,0,0,0,4.87-.19,2.09,2.09,0,0,0,1.56-2.61c-.52-1.75-2.11-1.27-3.32-.69-3,1.41-5.89,2.85-8.86,4.21-2.77,1.28-5.85,2.45-8.87,1.32l-.8,2.89a10.08,10.08,0,0,1,2.69,1.38,4.92,4.92,0,0,0,3.06.55c2.15-.33,3.79-2,5.09-3.64a1.54,1.54,0,0,0,0-2.13,10.08,10.08,0,0,0-7.28-3.22l.4,2.95a109,109,0,0,0,19.35-5.33L130.26,100,128.44,102a1.51,1.51,0,0,0,1.82,2.36A81.14,81.14,0,0,0,143.43,97c1.58-1.08.08-3.68-1.51-2.59a80.81,80.81,0,0,1-13.18,7.33l1.82,2.35,1.82-1.94c1-1,0-3.07-1.46-2.51A108.86,108.86,0,0,1,111.58,105c-1.71.3-1.24,2.91.39,2.94a7,7,0,0,1,5.16,2.35v-2.13c-.86,1.08-2.17,2.87-3.72,2.84a3.92,3.92,0,0,1-1.89-.88,6.62,6.62,0,0,0-2.31-1,1.5,1.5,0,0,0-.8,2.89c3.42,1.28,7,.23,10.17-1.16,3.64-1.58,7.19-3.39,10.77-5.09h-1.52l.19.11-.69-.9.49-1-.75,0-1,0c-.83,0-1.66,0-2.49,0-1.58,0-3.16-.07-4.73-.16l.76,2.8A33.27,33.27,0,0,1,131,101.12l-1.69-2.21a17.93,17.93,0,0,1-7.28,6.34l1.51,2.59a70.48,70.48,0,0,1,14.32-7.55l-1.15-2.74a8.93,8.93,0,0,1-5.19,1.73l.75,2.79A64.65,64.65,0,0,1,147,94.88l-.8-2.89a124.2,124.2,0,0,0-31.72,16.85c-1.54,1.14-.05,3.74,1.51,2.6Z" transform="translate(-8.61 -21.11)"/><path class="cls-6" d="M106.44,108l-.24-.24a1.17,1.17,0,0,0-.48-.31,1.36,1.36,0,0,0-1.16,0,1.24,1.24,0,0,0-.48.31l-.23.31a1.42,1.42,0,0,0-.21.75l0,.4a1.47,1.47,0,0,0,.39.66l.23.24a1.21,1.21,0,0,0,.49.31,1.14,1.14,0,0,0,.57.13,1.15,1.15,0,0,0,.58-.13,1.21,1.21,0,0,0,.49-.31l.23-.3a1.47,1.47,0,0,0,.2-.76l-.05-.4a1.51,1.51,0,0,0-.38-.66Z" transform="translate(-8.61 -21.11)"/><path class="cls-6" d="M112.82,113.25l0,1.81a.78.78,0,0,0,.55.73.9.9,0,0,0,.4,0,.72.72,0,0,0,.45-.35,11.07,11.07,0,0,0,.79-2.69.83.83,0,0,0-.08-.58.77.77,0,0,0-.44-.35.78.78,0,0,0-.58.08.75.75,0,0,0-.35.45,10.54,10.54,0,0,1-.69,2.47l.07-.18v0l1.39.38,0-1.81a.75.75,0,0,0-1.5,0Z" transform="translate(-8.61 -21.11)"/><path class="cls-6" d="M113.33,115.17a.75.75,0,0,0,0-1.5.75.75,0,0,0,0,1.5Z" transform="translate(-8.61 -21.11)"/><path class="cls-6" d="M113.57,115.93a.75.75,0,0,0,0-1.5.75.75,0,0,0,0,1.5Z" transform="translate(-8.61 -21.11)"/><path class="cls-6" d="M113.57,115.93a.75.75,0,0,0,0-1.5.75.75,0,0,0,0,1.5Z" transform="translate(-8.61 -21.11)"/><path class="cls-6" d="M113.61,115.93a.75.75,0,0,0,0-1.5.75.75,0,0,0,0,1.5Z" transform="translate(-8.61 -21.11)"/><path class="cls-6" d="M113.65,115.93a.75.75,0,0,0,0-1.5.75.75,0,0,0,0,1.5Z" transform="translate(-8.61 -21.11)"/><line class="cls-4" x1="105" y1="93.82" x2="54.54" y2="64.75"/><line class="cls-1" x1="105" y1="93.82" x2="48.86" y2="61.48"/><line class="cls-1" x1="105" y1="93.82" x2="161.14" y2="61.48"/><path class="cls-6" d="M111.61,115.11v.26l1.5-1.5h0l.4,0h0l.36.15a.5.5,0,0,1-.12-.08l-.12-.07,0,0-.23-.1a1.29,1.29,0,0,0-.62-.14,1.61,1.61,0,0,0-.44.06,1.49,1.49,0,0,0-.39.17h0l-.31.23,0,0-.13.17-.13.17a1.78,1.78,0,0,0-.17.4,2.22,2.22,0,0,0-.06.45v.06a4.63,4.63,0,0,0,.07.52,1.14,1.14,0,0,0,.27.51,1.21,1.21,0,0,0,.42.39,1.12,1.12,0,0,0,.56.18,1.22,1.22,0,0,0,.6,0l.36-.15a1.52,1.52,0,0,0,.53-.54l.16-.36a1.55,1.55,0,0,0,0-.8.29.29,0,0,1,0-.09l0,.4v-.1l0,.4a.13.13,0,0,1,0-.06l-.15.36s0,0,0,0l-.23.3,0,0-.3.24,0,0-.35.15h0l-.39,0h0l-.4,0h0l-.35-.15.09.06.1.07.1.06a1.55,1.55,0,0,0,.84.24,1.72,1.72,0,0,0,1.06-.44l.23-.3a1.48,1.48,0,0,0,.21-.76v-.26a1.15,1.15,0,0,0-.13-.58,1.36,1.36,0,0,0-.79-.79,1.15,1.15,0,0,0-.58-.13l-.4,0a1.59,1.59,0,0,0-.66.39l-.24.3a1.57,1.57,0,0,0-.2.76Z" transform="translate(-8.61 -21.11)"/><path class="cls-6" d="M114.83,116.39h0l-.09,0h0l-.12,0-.13,0-.11.05-.1.08-.07.09h0l0,.06a.25.25,0,0,0,0,.14.38.38,0,0,0,0,.15.54.54,0,0,0,.07.13.36.36,0,0,0,.11.1l.09,0a.34.34,0,0,0,.2,0l.09,0a.44.44,0,0,0,.13-.14.25.25,0,0,1,0-.07l-.06.07,0,0-.08,0h0l-.09,0h-.13l-.09,0h0a.34.34,0,0,0,.14,0,.26.26,0,0,0,.15,0,.19.19,0,0,0,.12-.07.19.19,0,0,0,.1-.1l0-.09a.34.34,0,0,0,0-.2l0-.09a.44.44,0,0,0-.13-.14Z" transform="translate(-8.61 -21.11)"/><polygon class="cls-4" points="106.09 95.12 104.97 95.73 103.89 95.07 103.92 93.8 105.03 93.19 106.11 93.85 106.09 95.12"/><polygon class="cls-8" points="107 94.56 105.01 95.72 103.01 94.58 103 92.28 104.99 91.12 106.99 92.26 107 94.56"/><line class="cls-1" x1="105" y1="82.14" x2="48.86" y2="61.48"/><text class="cls-9" transform="translate(246.62 137.64)"><tspan class="cls-10">T</tspan><tspan x="67" y="0">ianyou </tspan><tspan class="cls-11" x="371.1" y="0">M</tspan><tspan x="464.1" y="0">ou</tspan></text></svg>