<svg id="Layer_1" data-name="Layer 1" xmlns="http://www.w3.org/2000/svg" viewBox="0 0 810.39 172.34"><defs><style>.cls-1,.cls-2,.cls-3,.cls-4,.cls-5{fill:none;}.cls-1,.cls-2,.cls-3,.cls-4,.cls-5,.cls-7,.cls-8{stroke:#326273;stroke-miterlimit:10;}.cls-1{stroke-width:5px;}.cls-2{stroke-width:3.5px;}.cls-3{stroke-width:10px;}.cls-5{stroke-width:2px;}.cls-6,.cls-8,.cls-9{fill:#326273;}.cls-7{fill:#fff;}.cls-8{stroke-width:1.7px;}.cls-9{opacity:0.9;font-size:100px;font-family:HoeflerText-Regular, Hoefler Text;}.cls-10{letter-spacing:-0.04em;}.cls-11{letter-spacing:-0.04em;}</style></defs><circle class="cls-1" cx="85.82" cy="85.82" r="83.32"/><circle class="cls-2" cx="85.42" cy="85.42" r="65.61"/><line class="cls-3" x1="44.4" y1="123.33" x2="71.09" y2="61.81"/><line class="cls-3" x1="125.64" y1="123.33" x2="98.95" y2="61.81"/><line class="cls-1" x1="85.02" y1="66.62" x2="44.4" y2="52.62"/><line class="cls-1" x1="85.02" y1="66.62" x2="130.22" y2="49.98"/><line class="cls-4" x1="85.42" y1="66.5" x2="85.42" y2="76.16"/><path class="cls-5" d="M124.35,112.73,165,89.33a104.17,104.17,0,0,0-11.5,5.41c-4.74,2.6-9.52,5.7-9.94,5.15-.22-.3,1-1.43.82-1.63-.45-.51-8.92,5.91-8.8,6.07s5.37-3,5-4.09-5.13,0-5.15-.14a23.58,23.58,0,0,0,2.83-.69c1.67-.59,2.56-1.35,2.63-1.25s-2.2,2.12-4.92,4.28a46.26,46.26,0,0,1-5.25,3.86c-.07-.09,4.89-3.49,4.4-4.46-.38-.73-3.82.22-3.83.21a1.29,1.29,0,0,1,.66,0,1.41,1.41,0,0,1,.59.27c.6.67-4,5.29-3.33,3.53,1-2.47.66-2.54.72-2.66.86-1.63,5.61-1.89,6-.74.71,1.89-10.29,7.83-10.73,7.24-.14-.19.93-.86,1.47-2.59a6.22,6.22,0,0,0,.26-3.23,19.4,19.4,0,0,0-.53,2.46c-.44,2.11-1.46,1.34-1.62.46-.25-1.3.11-1.79-.23-2.12-.67-.66-3.27.09-3.63,1.59-.21.9.47,1.75,1,2.42.9,1.13,2.24,1.9,2.4,1.72s-1.16-2.14-3.07-3.4-4.09-1.82-4.36-1.36,1,1.53,1.87,2.15,2.37,1.36,2.68,1-.66-1.78-1.59-2.71a10.71,10.71,0,0,0-2.57-1.82,18.71,18.71,0,0,0,2.64,1.23,6.73,6.73,0,0,0,2.85.59c.05-.15-.94-.64-1.71-.92-.58-.21-1.81-.6-1.91-.39s1.28,1.13,2.92,2.16a31.29,31.29,0,0,0,3.13,1.84,20.22,20.22,0,0,0-3.91-2.57,18.66,18.66,0,0,0-4.3-1.81,6.78,6.78,0,0,0,1.53.88" transform="translate(-39.33 -36.71)"/><path class="cls-5" d="M83.73,89.33l11,6.36.67.38,28.92,16.66" transform="translate(-39.33 -36.71)"/><path class="cls-6" d="M129.52,102.06a14.06,14.06,0,0,0-5.53,1.75,1.5,1.5,0,0,0,1.52,2.59,14.11,14.11,0,0,1,1.35-.67l-.35.15a12,12,0,0,1,3-.82l-.4,0,.42,0a1.61,1.61,0,0,0,1.06-.44,1.52,1.52,0,0,0,.44-1.06,1.5,1.5,0,0,0-.44-1.06,1.46,1.46,0,0,0-1.06-.44Z" transform="translate(-39.33 -36.71)"/><path class="cls-6" d="M120.77,105.64c-3.2-.45-6-2.28-8.83-3.74-1.9-1-3.81-2-5.66-3.05a153.39,153.39,0,0,0-14.36-7.42l-1.16,2.75a208.64,208.64,0,0,1,27.33,12.4,1.5,1.5,0,0,0,1.52-2.59l-7-5.09-1.52,2.59a80.32,80.32,0,0,0,12.58,5.12c1.84.57,2.63-2.32.79-2.89a75.65,75.65,0,0,1-11.85-4.82,1.5,1.5,0,0,0-1.52,2.59l7,5.09,1.52-2.59a216.93,216.93,0,0,0-28-12.71c-1.58-.58-2.71,2-1.16,2.74A150,150,0,0,1,105,101.57c1.89,1.13,3.87,2.1,5.83,3.11,2.91,1.52,5.85,3.39,9.16,3.85a1.57,1.57,0,0,0,1.85-1,1.51,1.51,0,0,0-1-1.84Z" transform="translate(-39.33 -36.71)"/><path class="cls-6" d="M124.63,104.16l1.43.55.16.58a1.19,1.19,0,0,1-.42.86.56.56,0,0,1-.2.12c-.12,0-.14,0-.07,0s.26,0,0,0,0,0,.07,0l.22,0,.45,0,2-.17c.3,0,.59-.06.89-.07h.54c-.34,0-.24,0-.1,0s.26.08,0,0,.13.13-.12-.06-.13-.11,0,0l-.15-.19a.47.47,0,0,1,.07.12s-.12-.38-.08-.16c0,0,0-.4,0-.2q.07-.42,0-.24c0,.08,0,0,0-.09a1.07,1.07,0,0,1,.41-.46,1.62,1.62,0,0,0-.69.89,1.56,1.56,0,0,0,.15,1.16,1.53,1.53,0,0,0,2.06.54,2.32,2.32,0,0,0,.81-1,2,2,0,0,0,.17-1,2.5,2.5,0,0,0-1.08-1.89,4.88,4.88,0,0,0-3.24-.36l-1.64.14a7,7,0,0,0-1.65.22,1.92,1.92,0,0,0-1.39,1.9,1.89,1.89,0,0,0,.54,1.26,1.8,1.8,0,0,0,.75.44,2,2,0,0,0,.91,0,1.51,1.51,0,0,0,.9-.69,1.61,1.61,0,0,0,.15-1.16,1.5,1.5,0,0,0-.69-.89,1.78,1.78,0,0,0-1.16-.15Z" transform="translate(-39.33 -36.71)"/><path class="cls-6" d="M127.92,107a1.5,1.5,0,0,0,0-3,1.5,1.5,0,0,0,0,3Z" transform="translate(-39.33 -36.71)"/><path class="cls-7" d="M144.35,98.26c-11.93,5-16.75,7.81-16.4,9,.2.66,2,.74,2,1.13-.05.6-4.52,1.17-4.8.39-.37-1,6.56-4.54,15.34-8.52" transform="translate(-39.33 -36.71)"/><path class="cls-6" d="M126.44,110.17a98.11,98.11,0,0,1,24.89-13.3c1.8-.64,1-3.51-.79-2.89A55,55,0,0,0,138,100a1.52,1.52,0,0,0,.76,2.8,9.84,9.84,0,0,0,5.55-1.77c1.28-.9.54-3.4-1.16-2.74A60.33,60.33,0,0,0,131,104.69a1.5,1.5,0,0,0,1.52,2.59,17.13,17.13,0,0,0,6.83-6.08,1.51,1.51,0,0,0-1.69-2.2,28.94,28.94,0,0,0-9.85,4.76,1.51,1.51,0,0,0,.76,2.79,54.35,54.35,0,0,0,7.22.08,2.45,2.45,0,0,0,2-1,1.84,1.84,0,0,0-.34-2.44,1.61,1.61,0,0,0-1.82-.24c-2.53,1.21-5.06,2.44-7.6,3.62-2.24,1-4.71,2-7.16,1.15l-.8,2.89a8.35,8.35,0,0,1,2.12,1.09,4.21,4.21,0,0,0,2.63.47c1.8-.28,3.17-1.66,4.26-3a1.54,1.54,0,0,0,0-2.12,8.49,8.49,0,0,0-6.06-2.68l.39,3A89.43,89.43,0,0,0,139,103.05l-1.46-2.51-1.47,1.57a1.51,1.51,0,0,0,1.82,2.35,65,65,0,0,0,10.61-5.89c1.58-1.09.08-3.69-1.52-2.59a65.34,65.34,0,0,1-10.6,5.89l1.82,2.36,1.46-1.57c1-1,0-3.06-1.46-2.5a88.43,88.43,0,0,1-15.57,4.28c-1.71.31-1.24,2.91.4,3a5.44,5.44,0,0,1,3.94,1.8v-2.12c-.65.8-1.66,2.23-2.83,2.19a3.38,3.38,0,0,1-1.48-.76,5.34,5.34,0,0,0-1.78-.74,1.5,1.5,0,0,0-.8,2.89c2.78,1,5.65.22,8.26-.9,3-1.28,5.89-2.77,8.82-4.17l-1.82-.23-.17-.27.15-1.16c.62-.29.61-.38,0-.28-.32,0-.64,0-1,0-.64,0-1.28,0-1.92,0-1.29,0-2.57-.05-3.85-.13l.76,2.8a26.87,26.87,0,0,1,9.13-4.46l-1.7-2.2a14.29,14.29,0,0,1-5.76,5l1.52,2.59a56.3,56.3,0,0,1,11.46-6l-1.16-2.75a7,7,0,0,1-4,1.36l.76,2.79a51.88,51.88,0,0,1,11.78-5.76L150.54,94a100.29,100.29,0,0,0-25.61,13.6c-1.54,1.13-.05,3.74,1.51,2.59Z" transform="translate(-39.33 -36.71)"/><path class="cls-6" d="M118.78,106.93l-.19-.19a1,1,0,0,0-.48-.31,1.15,1.15,0,0,0-.58-.13,1.72,1.72,0,0,0-1.06.44l-.23.3a1.48,1.48,0,0,0-.21.76l.06.4a1.57,1.57,0,0,0,.38.66l.19.19a1.14,1.14,0,0,0,.48.31,1.17,1.17,0,0,0,.58.13,1.15,1.15,0,0,0,.58-.13,1,1,0,0,0,.48-.31l.24-.3a1.57,1.57,0,0,0,.2-.76l0-.4a1.44,1.44,0,0,0-.39-.66Z" transform="translate(-39.33 -36.71)"/><path class="cls-6" d="M123.57,111.38v1.46a.74.74,0,0,0,.55.72.9.9,0,0,0,.4,0,.72.72,0,0,0,.44-.34,8.51,8.51,0,0,0,.65-2.21.75.75,0,0,0-.52-.92.78.78,0,0,0-.58.08.74.74,0,0,0-.34.44,8.61,8.61,0,0,1-.56,2l.07-.18v0l1.4.38v-1.46a.75.75,0,0,0-1.5,0Z" transform="translate(-39.33 -36.71)"/><path class="cls-6" d="M124.13,113.07a.75.75,0,0,0,0-1.5.75.75,0,0,0,0,1.5Z" transform="translate(-39.33 -36.71)"/><path class="cls-6" d="M124.32,113.68a.75.75,0,0,0,0-1.5.75.75,0,0,0,0,1.5Z" transform="translate(-39.33 -36.71)"/><path class="cls-6" d="M124.32,113.68a.75.75,0,0,0,0-1.5.75.75,0,0,0,0,1.5Z" transform="translate(-39.33 -36.71)"/><path class="cls-6" d="M124.35,113.68a.75.75,0,0,0,0-1.5.75.75,0,0,0,0,1.5Z" transform="translate(-39.33 -36.71)"/><path class="cls-6" d="M124.39,113.68a.75.75,0,0,0,0-1.5.75.75,0,0,0,0,1.5Z" transform="translate(-39.33 -36.71)"/><line class="cls-4" x1="85.02" y1="76.02" x2="44.4" y2="52.62"/><line class="cls-1" x1="85.02" y1="76.02" x2="39.82" y2="49.98"/><line class="cls-1" x1="85.02" y1="76.02" x2="130.22" y2="49.98"/><path class="cls-6" d="M122.45,112.88v.21l1.5-1.5h0l.4,0s0,0,0,0l.35.16-.09-.07-.09-.06,0,0a.85.85,0,0,0-.22-.09,1.25,1.25,0,0,0-.61-.14,1.59,1.59,0,0,0-.43.06,1.88,1.88,0,0,0-.39.16h0l-.3.24h0a1.1,1.1,0,0,0-.13.17,1.26,1.26,0,0,0-.13.16,1.92,1.92,0,0,0-.17.39v0a2.9,2.9,0,0,0-.06.41v0a4,4,0,0,0,.07.5,1.14,1.14,0,0,0,.27.51,1.21,1.21,0,0,0,.42.39,1.12,1.12,0,0,0,.56.18,1.22,1.22,0,0,0,.6,0l.35-.15a1.4,1.4,0,0,0,.54-.54l.15-.36a1.36,1.36,0,0,0,0-.8s0-.05,0-.07l0,.4V113l0,.39a.06.06,0,0,1,0,0l-.15.36a.08.08,0,0,1,0,0l-.24.31,0,0-.3.23h0l-.36.15h0l-.4.05h0l-.39-.05h0l-.36-.15a.18.18,0,0,1,.07,0l.09,0,.08.06a1.66,1.66,0,0,0,.82.23,1.22,1.22,0,0,0,.57-.13,1.21,1.21,0,0,0,.49-.31l.23-.31a1.42,1.42,0,0,0,.21-.75v-.21a1.15,1.15,0,0,0-.13-.58,1,1,0,0,0-.31-.48,1.14,1.14,0,0,0-.48-.31,1.06,1.06,0,0,0-.58-.13l-.4.05a1.49,1.49,0,0,0-.66.39l-.24.3a1.54,1.54,0,0,0-.2.76Z" transform="translate(-39.33 -36.71)"/><path class="cls-6" d="M125.37,113.85h0l-.09,0H125a.25.25,0,0,0-.09,0h0l-.08.06h0a.1.1,0,0,0,0,0l0,0,0,0a.27.27,0,0,0,0,.14.26.26,0,0,0,0,.15.24.24,0,0,0,.07.13.32.32,0,0,0,.1.1l.09,0a.34.34,0,0,0,.2,0l.09,0a.35.35,0,0,0,.13-.14.21.21,0,0,1,0-.06l-.06.08s0,0,0,0l-.07,0h0l-.09,0h0l-.1,0h0l-.1,0h0l-.09,0h0a.33.33,0,0,0,.14,0,.26.26,0,0,0,.15,0,.32.32,0,0,0,.22-.17l0-.09a.34.34,0,0,0,0-.2l0-.09a.4.4,0,0,0-.13-.13Z" transform="translate(-39.33 -36.71)"/><polygon class="cls-4" points="85.89 77.06 85 77.56 84.13 77.03 84.15 76 85.04 75.51 85.92 76.04 85.89 77.06"/><polygon class="cls-8" points="86.63 76.62 85.03 77.55 83.42 76.63 83.41 74.78 85.01 73.85 86.62 74.77 86.63 76.62"/><line class="cls-1" x1="85.02" y1="66.62" x2="39.82" y2="49.98"/><text class="cls-9" transform="translate(215.9 122.04)"><tspan class="cls-10">T</tspan><tspan x="67" y="0">ianyou </tspan><tspan class="cls-11" x="371.1" y="0">M</tspan><tspan x="464.1" y="0">ou</tspan></text></svg>