<svg id="Layer_1" data-name="Layer 1" xmlns="http://www.w3.org/2000/svg" viewBox="0 0 212 212"><defs><style>.cls-1,.cls-8{fill:#fff;}.cls-1,.cls-2,.cls-3,.cls-4,.cls-5,.cls-6,.cls-8,.cls-9{stroke:#326273;stroke-miterlimit:10;}.cls-1,.cls-4{stroke-width:5px;}.cls-2,.cls-3,.cls-4,.cls-5,.cls-6{fill:none;}.cls-2{stroke-width:3.5px;}.cls-3{stroke-width:10px;}.cls-6{stroke-width:2px;}.cls-7,.cls-9{fill:#326273;}.cls-9{stroke-width:1.7px;}</style></defs><circle class="cls-1" cx="106" cy="106" r="103.5"/><circle class="cls-2" cx="105.5" cy="105.5" r="81.5"/><line class="cls-3" x1="54.54" y1="152.59" x2="87.69" y2="76.17"/><line class="cls-3" x1="155.46" y1="152.59" x2="122.31" y2="76.17"/><line class="cls-4" x1="105" y1="82.14" x2="54.54" y2="64.75"/><line class="cls-4" x1="105" y1="82.14" x2="161.14" y2="61.48"/><line class="cls-5" x1="105.5" y1="82" x2="105.5" y2="94"/><path class="cls-6" d="M326,279.82l50.46-29.07a129.83,129.83,0,0,0-14.3,6.73c-5.87,3.22-11.82,7.08-12.34,6.38-.28-.37,1.24-1.77,1-2-.56-.63-11.07,7.34-10.93,7.54s6.68-3.75,6.16-5.08c-.46-1.17-6.37,0-6.39-.18a27.85,27.85,0,0,0,3.51-.85c2.08-.73,3.17-1.67,3.27-1.55s-2.73,2.63-6.12,5.31a59.17,59.17,0,0,1-6.51,4.8c-.09-.11,6.07-4.34,5.46-5.54-.47-.91-4.75.28-4.75.26a1.6,1.6,0,0,1,.81,0,1.54,1.54,0,0,1,.73.34c.75.83-5,6.56-4.13,4.38,1.22-3.07.82-3.16.9-3.3,1.07-2,7-2.36,7.49-.93.89,2.36-12.77,9.74-13.33,9-.17-.23,1.17-1.06,1.84-3.21a7.68,7.68,0,0,0,.31-4,30.41,30.41,0,0,0-.65,3.06c-.54,2.62-1.81,1.66-2,.58-.3-1.61.15-2.23-.28-2.64-.83-.81-4.06.12-4.5,2-.27,1.12.57,2.17,1.24,3,1.12,1.4,2.77,2.36,3,2.13s-1.45-2.65-3.82-4.22-5.08-2.26-5.42-1.7,1.23,1.91,2.33,2.68,2.94,1.69,3.32,1.25-.81-2.22-2-3.38a13.27,13.27,0,0,0-3.19-2.25,24.67,24.67,0,0,0,3.28,1.52c1.63.59,3.46.95,3.54.73s-1.17-.79-2.13-1.14c-.71-.26-2.25-.74-2.37-.48s1.6,1.4,3.63,2.68a37.62,37.62,0,0,0,3.88,2.28,25.41,25.41,0,0,0-4.85-3.18,23.41,23.41,0,0,0-5.35-2.26c0,.05.33.28,1.91,1.09" transform="translate(-221 -186)"/><path class="cls-6" d="M275.54,250.75l13.71,7.9.83.48L326,279.82" transform="translate(-221 -186)"/><path class="cls-7" d="M332.42,266.93a16.79,16.79,0,0,0-6.68,2.13,1.51,1.51,0,0,0-.54,2.05,1.53,1.53,0,0,0,2.05.54,13.23,13.23,0,0,1,1.4-.72c.09,0,.35-.21,0,0a2.54,2.54,0,0,1,.38-.16l.7-.24a13.3,13.3,0,0,1,1.41-.38l.72-.14c.1,0,.55-.14.12,0a1.92,1.92,0,0,1,.41-.05,1.66,1.66,0,0,0,1.06-.44,1.5,1.5,0,0,0-1.06-2.56Z" transform="translate(-221 -186)"/><path class="cls-7" d="M321.46,271.36c-4-.55-7.56-2.87-11.1-4.71-2.33-1.21-4.68-2.38-6.94-3.73a187.82,187.82,0,0,0-17.89-9.24l-1.16,2.74a261.82,261.82,0,0,1,34,15.44,1.5,1.5,0,0,0,1.52-2.59L311.27,263l-1.52,2.59a96.86,96.86,0,0,0,15.53,6.32c1.85.58,2.64-2.32.8-2.89a92.85,92.85,0,0,1-14.81-6,1.5,1.5,0,0,0-1.52,2.59l8.66,6.32,1.52-2.59a267.38,267.38,0,0,0-34.76-15.74c-1.58-.59-2.7,2-1.16,2.74a186.81,186.81,0,0,1,18.11,9.37c2.3,1.38,4.72,2.56,7.1,3.8,3.63,1.88,7.31,4.25,11.44,4.81a1.54,1.54,0,0,0,1.84-1.05,1.5,1.5,0,0,0-1-1.84Z" transform="translate(-221 -186)"/><path class="cls-7" d="M326.45,269.52l1.36.52.15.54a1,1,0,0,1-.38.77.36.36,0,0,1-.16.11l-.05,0s.28,0,0,0,.14,0,.14,0l.28,0,.56-.05,2.44-.21,1.11-.09a3.38,3.38,0,0,1,.45,0s.19,0,.22,0c-.2,0-.24,0-.13,0l.1,0c.09,0,.2.12.08,0s.2.16-.07,0c-.11-.09-.11-.09,0,0l-.12-.17a.55.55,0,0,0,.08.15s-.11-.32-.06-.11c0-.06,0-.35,0-.15.05-.25.06-.31,0-.2s0,.06,0-.07a1,1,0,0,1,.37-.4,1.61,1.61,0,0,0-.69.89,1.5,1.5,0,0,0,2.2,1.7,2.31,2.31,0,0,0,1-2.09,2.75,2.75,0,0,0-1.16-2c-1.13-.77-2.57-.5-3.85-.39l-2,.17a9,9,0,0,0-1.95.25,2,2,0,0,0-1.47,2,2,2,0,0,0,.57,1.31,1.86,1.86,0,0,0,1.7.45,1.5,1.5,0,0,0,1.05-1.84,1.54,1.54,0,0,0-1.84-1.05Z" transform="translate(-221 -186)"/><path class="cls-7" d="M330.43,272.38a1.5,1.5,0,0,0,0-3,1.5,1.5,0,0,0,0,3Z" transform="translate(-221 -186)"/><path class="cls-8" d="M350.84,261.84C336,268.07,330,271.55,330.47,273c.24.83,2.54.92,2.51,1.41-.06.74-5.62,1.45-6,.48-.46-1.27,8.16-5.63,19.06-10.58" transform="translate(-221 -186)"/><path class="cls-7" d="M328.41,276.32a121.77,121.77,0,0,1,31-16.55c1.8-.65,1.05-3.52-.8-2.89a67.8,67.8,0,0,0-15.44,7.49,1.52,1.52,0,0,0,.76,2.8,11.73,11.73,0,0,0,6.7-2.14c1.27-.91.55-3.4-1.15-2.75a73.73,73.73,0,0,0-15,7.86,1.5,1.5,0,0,0,1.51,2.59,20.84,20.84,0,0,0,8.36-7.41,1.52,1.52,0,0,0-1.69-2.21A35.75,35.75,0,0,0,330.48,269a1.52,1.52,0,0,0,.76,2.8c1.66.1,3.32.16,5,.16a19.81,19.81,0,0,0,4.87-.18,2.11,2.11,0,0,0,1.57-2.61c-.53-1.75-2.12-1.27-3.33-.69-2.95,1.41-5.89,2.85-8.86,4.21-2.77,1.28-5.85,2.45-8.87,1.32l-.8,2.89a10.08,10.08,0,0,1,2.69,1.38,4.92,4.92,0,0,0,3.06.55c2.15-.33,3.79-2,5.1-3.64a1.56,1.56,0,0,0,0-2.13,10.12,10.12,0,0,0-7.28-3.22l.39,2.95a108.73,108.73,0,0,0,19.35-5.33l-1.46-2.51-1.82,1.95a1.51,1.51,0,0,0,1.82,2.36,81.9,81.9,0,0,0,13.17-7.33c1.58-1.08.08-3.69-1.51-2.59a81.9,81.9,0,0,1-13.17,7.33L343,269l1.82-1.94c1-1,0-3.07-1.46-2.51A108.86,108.86,0,0,1,324,269.88c-1.71.3-1.24,2.91.4,2.94a7,7,0,0,1,5.15,2.35V273c-.86,1.08-2.17,2.87-3.72,2.84a3.92,3.92,0,0,1-1.89-.88,6.54,6.54,0,0,0-2.31-1,1.5,1.5,0,0,0-.8,2.89c3.42,1.28,7,.23,10.17-1.16,3.64-1.58,7.19-3.39,10.77-5.09h-1.52l.19.11-.69-.9.49-1-.75,0-1,0c-.83,0-1.66,0-2.49,0-1.58,0-3.16-.07-4.73-.16l.76,2.8A33.23,33.23,0,0,1,343.43,266l-1.7-2.21a17.93,17.93,0,0,1-7.28,6.34l1.51,2.59a70.48,70.48,0,0,1,14.32-7.55l-1.15-2.75a8.87,8.87,0,0,1-5.19,1.74l.75,2.79a64.65,64.65,0,0,1,14.73-7.19l-.8-2.89a124.2,124.2,0,0,0-31.72,16.85c-1.54,1.14,0,3.74,1.51,2.59Z" transform="translate(-221 -186)"/><path class="cls-7" d="M318.83,272.87l-.24-.24a1.11,1.11,0,0,0-.48-.31,1.27,1.27,0,0,0-.58-.13,1.29,1.29,0,0,0-.58.13,1.24,1.24,0,0,0-.48.31l-.23.31a1.42,1.42,0,0,0-.21.75l.06.4a1.45,1.45,0,0,0,.38.66l.24.24a1.11,1.11,0,0,0,.48.31,1.15,1.15,0,0,0,.58.13,1.11,1.11,0,0,0,.57-.13,1.21,1.21,0,0,0,.49-.31l.23-.31a1.42,1.42,0,0,0,.21-.75l-.06-.4a1.45,1.45,0,0,0-.38-.66Z" transform="translate(-221 -186)"/><path class="cls-7" d="M325.21,278.14l0,1.81a.78.78,0,0,0,.56.73.86.86,0,0,0,.39,0,.76.76,0,0,0,.45-.35,11.07,11.07,0,0,0,.79-2.69.83.83,0,0,0-.07-.58.74.74,0,0,0-1-.27.75.75,0,0,0-.35.45,10.08,10.08,0,0,1-.69,2.47l.08-.18,0,0,1.39.38,0-1.81a.75.75,0,0,0-1.5,0Z" transform="translate(-221 -186)"/><path class="cls-7" d="M325.72,280.06a.75.75,0,0,0,0-1.5.75.75,0,0,0,0,1.5Z" transform="translate(-221 -186)"/><path class="cls-7" d="M326,280.82a.75.75,0,0,0,0-1.5.75.75,0,0,0,0,1.5Z" transform="translate(-221 -186)"/><path class="cls-7" d="M326,280.82a.75.75,0,0,0,0-1.5.75.75,0,0,0,0,1.5Z" transform="translate(-221 -186)"/><path class="cls-7" d="M326,280.82a.75.75,0,0,0,0-1.5.75.75,0,0,0,0,1.5Z" transform="translate(-221 -186)"/><path class="cls-7" d="M326,280.82a.75.75,0,0,0,0-1.5.75.75,0,0,0,0,1.5Z" transform="translate(-221 -186)"/><line class="cls-5" x1="105" y1="93.82" x2="54.54" y2="64.75"/><line class="cls-4" x1="105" y1="93.82" x2="48.86" y2="61.48"/><line class="cls-4" x1="105" y1="93.82" x2="161.14" y2="61.48"/><path class="cls-7" d="M324,280v.26l1.5-1.5h0l.4.05h0l.36.15-.12-.08-.11-.07-.06,0a.94.94,0,0,0-.23-.1,1.29,1.29,0,0,0-.62-.14,1.34,1.34,0,0,0-.44.06,1.49,1.49,0,0,0-.39.17h0l-.31.23,0,0-.13.17-.13.17a1.78,1.78,0,0,0-.17.4,2.22,2.22,0,0,0-.06.45v.06a4.63,4.63,0,0,0,.07.52,1.14,1.14,0,0,0,.27.51,1.31,1.31,0,0,0,.42.39,1.16,1.16,0,0,0,.56.18,1.22,1.22,0,0,0,.6,0l.36-.15a1.74,1.74,0,0,0,.54-.54l.15-.36a1.55,1.55,0,0,0,0-.8.29.29,0,0,1,0-.09l.05.4v-.1l-.05.4a.13.13,0,0,1,0-.06l-.15.36,0,0-.23.31,0,0-.3.24a.05.05,0,0,1,0,0l-.36.15h0l-.39,0h0l-.4,0h0l-.35-.15.09.06.1.07.1.06a1.55,1.55,0,0,0,.84.24,1.17,1.17,0,0,0,.58-.13,1.14,1.14,0,0,0,.48-.31l.23-.3a1.48,1.48,0,0,0,.21-.76V280a1.15,1.15,0,0,0-.13-.58,1.36,1.36,0,0,0-.79-.79,1.15,1.15,0,0,0-.58-.13l-.4.05a1.49,1.49,0,0,0-.66.39l-.24.3a1.57,1.57,0,0,0-.2.76Z" transform="translate(-221 -186)"/><path class="cls-7" d="M327.22,281.28h0l-.09,0h0l-.12,0-.13,0-.11.05-.1.08-.07.09h0l0,.06a.33.33,0,0,0,0,.14.26.26,0,0,0,0,.15.31.31,0,0,0,.06.13.24.24,0,0,0,.11.09l.09,0a.34.34,0,0,0,.2,0l.09,0a.33.33,0,0,0,.13-.13.16.16,0,0,1,0-.07l-.06.07,0,0-.08.06h0l-.09,0h-.13l-.09,0h0a.34.34,0,0,0,.14.05.38.38,0,0,0,.15,0,.33.33,0,0,0,.13-.07.22.22,0,0,0,.09-.1l0-.09a.34.34,0,0,0,0-.2l0-.09a.44.44,0,0,0-.13-.14Z" transform="translate(-221 -186)"/><polygon class="cls-5" points="106.09 95.12 104.97 95.73 103.89 95.07 103.92 93.8 105.03 93.19 106.11 93.85 106.09 95.12"/><polygon class="cls-9" points="107 94.56 105.01 95.72 103.01 94.58 103 92.28 104.99 91.12 106.99 92.26 107 94.56"/><line class="cls-4" x1="105" y1="82.14" x2="48.86" y2="61.48"/></svg>